<?xml version="1.0" encoding="utf-8"?>
<!-- Generator: Adobe Illustrator 19.0.1, SVG Export Plug-In . SVG Version: 6.00 Build 0)  -->
<svg version="1.1" id="Слой_1" xmlns="http://www.w3.org/2000/svg" xmlns:xlink="http://www.w3.org/1999/xlink" x="0px" y="0px"
	 viewBox="0 0 24.8 17.6" style="enable-background:new 0 0 24.8 17.6;" xml:space="preserve">
<style type="text/css">
	.st0{fill:#FFFFFF;}
</style>
<g>
	<path class="st0" d="M20.1,13.6c-0.1,0-0.2,0-0.3-0.1l-4.6-4.3c-0.2-0.2-0.2-0.4,0-0.6c0.2-0.2,0.4-0.2,0.6,0l4.6,4.3
		c0.2,0.2,0.2,0.4,0,0.6C20.3,13.6,20.2,13.6,20.1,13.6L20.1,13.6z M20.1,13.6"/>
	<path class="st0" d="M4.7,13.6c-0.1,0-0.2,0-0.3-0.1c-0.2-0.2-0.1-0.4,0-0.6l4.6-4.3c0.2-0.2,0.4-0.1,0.6,0c0.2,0.2,0.1,0.4,0,0.6
		L5,13.5C4.9,13.6,4.8,13.6,4.7,13.6L4.7,13.6z M4.7,13.6"/>
	<path class="st0" d="M22.8,17.6H2c-1.1,0-2-0.9-2-2V2c0-1.1,0.9-2,2-2h20.8c1.1,0,2,0.9,2,2v13.6C24.8,16.7,23.9,17.6,22.8,17.6
		L22.8,17.6z M2,0.8C1.3,0.8,0.8,1.3,0.8,2v13.6c0,0.7,0.5,1.2,1.2,1.2h20.8c0.7,0,1.2-0.5,1.2-1.2V2c0-0.7-0.5-1.2-1.2-1.2H2z
		 M2,0.8"/>
	<path class="st0" d="M12.4,10.8c-0.5,0-1.1-0.2-1.5-0.5l-10.3-9c-0.2-0.1-0.2-0.4,0-0.6c0.1-0.2,0.4-0.2,0.6,0l10.3,9
		c0.5,0.4,1.4,0.4,1.9,0l10.3-8.9c0.2-0.1,0.4-0.1,0.6,0c0.1,0.2,0.1,0.4,0,0.6l-10.3,8.9C13.5,10.7,12.9,10.8,12.4,10.8L12.4,10.8z
		 M12.4,10.8"/>
</g>
</svg>
