<?xml version="1.0" encoding="utf-8"?>
<!-- Generator: Adobe Illustrator 19.0.1, SVG Export Plug-In . SVG Version: 6.00 Build 0)  -->
<svg version="1.1" id="Эллипс_1_копия_xA0_Изображение_1_"
	 xmlns="http://www.w3.org/2000/svg" xmlns:xlink="http://www.w3.org/1999/xlink" x="0px" y="0px" viewBox="8 -17 26 44"
	 style="enable-background:new 8 -17 26 44;" xml:space="preserve">
<style type="text/css">
	.st0{fill:#FFFFFF;}
</style>
<path class="st0" d="M21,26.9c-7.3,0-13-2.2-13-5.1s5.7-5.1,13-5.1s13,2.2,13,5.1S28.3,26.9,21,26.9z M21,17.8c-7,0-12,2.2-12,4.1
	S13.9,26,21,26c7,0,12-2.2,12-4.1S28.1,17.8,21,17.8z M14.9,22.1c0,1.6,3,2.5,5.9,2.5s5.9-0.8,5.9-2.5
	C26.7,18.9,14.9,18.9,14.9,22.1z M20.3-16.8c-5.3,0-9.6,4.3-9.6,9.6c0,4.7,3.3,11,6.1,15.3c0.2,0.3,0.6,0.4,0.8,0.2
	c0.3-0.2,0.4-0.6,0.2-0.8c-4.9-7.7-5.9-12.3-5.9-14.7c0-4.6,3.8-8.4,8.4-8.4s8.4,3.8,8.4,8.4c0,7.5-8.8,19-8.9,19.1
	c-0.2,0.3-0.2,0.6,0.1,0.8c0.1,0.1,0.2,0.1,0.4,0.1s0.4-0.1,0.5-0.2c0.4-0.5,9.1-11.9,9.1-19.9C29.9-12.5,25.6-16.8,20.3-16.8
	L20.3-16.8z"/>
<path class="st0" d="M20.3-10.3c0.3,0,0.6-0.3,0.6-0.6c0-0.3-0.3-0.6-0.6-0.6c-2.4,0-4.3,1.9-4.3,4.3s1.9,4.3,4.3,4.3
	s4.3-1.9,4.3-4.3c0-0.9-0.3-1.8-0.9-2.6c-0.2-0.3-0.6-0.3-0.8-0.1c-0.3,0.2-0.3,0.6-0.1,0.8c0.4,0.5,0.6,1.2,0.6,1.9
	c0,1.7-1.4,3.1-3.1,3.1s-3.1-1.4-3.1-3.1C17.2-8.9,18.6-10.3,20.3-10.3L20.3-10.3z"/>
</svg>
