<?xml version="1.0" encoding="utf-8"?>
<!-- Generator: Adobe Illustrator 19.0.1, SVG Export Plug-In . SVG Version: 6.00 Build 0)  -->
<svg version="1.1" id="Слой_1" xmlns="http://www.w3.org/2000/svg" xmlns:xlink="http://www.w3.org/1999/xlink" x="0px" y="0px"
	 viewBox="0 0 378 378.6" style="enable-background:new 0 0 378 378.6;" xml:space="preserve">
<style type="text/css">
	.st0{fill:#FFFFFF;}
</style>
<g>
	<g>
		<g>
			<path class="st0" d="M343.5,278.2l-44-44.1c-7.3-7.6-16-11.6-25.2-11.6c-9.2,0-18,4-25.6,11.6l-26.6,26.5l-1.6-0.9
				c-1.4-0.7-2.7-1.4-4.1-2.1c-0.7-0.3-1.4-0.7-2-1c-2.9-1.5-5.7-2.8-8.1-4.3c-23.9-15.2-45.7-35-66.5-60.5
				c-10.2-12.8-16.9-23.5-21.9-34.6l-0.7-1.7l1.3-1.2c5.9-5.4,11.4-11,16.8-16.4l1.7-1.7c1.2-1.2,2.3-2.3,3.4-3.5
				c1.1-1.1,2.2-2.2,3.3-3.3c15.7-15.7,15.7-36.1,0-51.8l-22.2-22.2c-2.4-2.4-4.8-4.8-7.1-7.3c-4.7-4.8-9.7-9.9-14.9-14.8
				c-7.3-7.3-16-11.1-25.1-11.1c-9.1,0-17.9,3.8-25.5,11.1l-0.1,0.1L21.5,60.5C11.6,70.4,6,82.4,4.8,96.2
				C3,119,9.7,140.4,14.9,154.5c12.9,34.8,32.2,67,60.8,101.4c34.8,41.6,76.7,74.4,124.5,97.5c18.3,8.7,42.7,18.8,69.5,20.5
				c1.6,0.1,3.3,0.2,4.9,0.2c17.7,0,32.6-6.4,44.2-18.9c0.1-0.1,0.2-0.2,0.3-0.3l0.1-0.1c4-4.8,8.5-9.1,13.2-13.7l1-1
				c4.2-4,7.4-7.2,10.3-10.3c7.5-7.8,11.4-16.7,11.4-26C355,294.5,351,285.7,343.5,278.2z M331.8,318.3c-2.6,2.8-5.3,5.4-8.1,8.1
				l-1.8,1.7c-5,4.8-10.4,10-15.3,15.8l-0.1,0.1c-8.6,9.2-18.8,13.5-31.9,13.5c-1.2,0-2.6,0-3.8-0.1c-24.2-1.5-46.6-11-63.3-19
				c-45.7-22.1-85.7-53.4-118.9-93.1c-27.4-33-45.9-63.8-58-96.7c-7.5-20.2-10.4-36-9.1-51.2c0.8-10,4.7-18.3,11.8-25.3l27.3-27.3
				c4.5-4.2,9.3-6.4,13.9-6.4c4.7,0,9.3,2.2,13.5,6.3l0.2,0.3c5.1,4.8,10.1,9.9,14.4,14.3c1.2,1.3,2.5,2.5,3.8,3.8
				c1.3,1.3,2.6,2.6,3.8,3.9L131.9,89c9.4,9.4,9.4,18.9,0,28.3c-0.8,0.8-1.5,1.5-2.3,2.3c-1.5,1.5-3.1,3.1-4.7,4.6
				c-7.1,7.3-13.3,13.4-20.1,19.5c0,0,0,0-0.1,0.1l0,0l-0.3,0.3c-5.7,5.7-5,11.1-3.5,15.6l0.2,0.6c5.5,13.3,13.3,26.1,25.4,41.4
				l0.2,0.2c22,27.1,45,48,70.4,64.1c3.2,2,6.5,3.7,9.6,5.2c2.9,1.5,5.7,2.8,8,4.3c0.2,0.1,0.4,0.2,0.6,0.3c0.1,0,0.2,0.1,0.3,0.2
				c2.4,1.2,4.5,1.7,6.8,1.7c5.6,0,9.2-3.6,10.4-4.8l27.4-27.4c3.1-3.1,8-6.7,13.9-6.7c6.3,0,11,4.1,13.3,6.6l44.2,44.2
				C340.8,298.9,340.9,308.7,331.8,318.3z M329.9,316.6C329.9,316.6,329.9,316.5,329.9,316.6C329.9,316.5,329.8,316.6,329.9,316.6z
				 M329.9,316.6C329.9,316.6,329.9,316.5,329.9,316.6C329.9,316.5,329.8,316.6,329.9,316.6z"/>
			<path class="st0" d="M329.9,316.6C329.9,316.6,329.9,316.5,329.9,316.6C329.9,316.5,329.8,316.6,329.9,316.6z M329.9,316.6
				C329.9,316.6,329.9,316.5,329.9,316.6C329.9,316.5,329.8,316.6,329.9,316.6z M329.9,316.6C329.9,316.6,329.9,316.5,329.9,316.6
				C329.9,316.5,329.8,316.6,329.9,316.6z M329.9,316.6C329.9,316.6,329.9,316.5,329.9,316.6C329.9,316.5,329.8,316.6,329.9,316.6z
				 M329.9,316.6C329.9,316.6,329.9,316.5,329.9,316.6C329.9,316.5,329.8,316.6,329.9,316.6z M329.9,316.6
				C329.9,316.6,329.9,316.5,329.9,316.6C329.9,316.5,329.8,316.6,329.9,316.6z M329.9,316.6C329.9,316.6,329.9,316.5,329.9,316.6
				C329.9,316.5,329.8,316.6,329.9,316.6z"/>
		</g>
		<g>
			<path class="st0" d="M309.3,168.2c-4.2-24.8-16-47.5-33.9-65.4c-18-18-40.6-29.7-65.5-34c-0.5-0.1-0.9-0.1-1.4-0.1
				c-4,0-7.5,2.8-8.2,6.9c-0.4,2.2,0.1,4.5,1.4,6.3c1.3,1.8,3.1,2.9,5.3,3.3h0c21.4,3.6,41,13.7,56.6,29.3
				c15.5,15.5,25.6,35.1,29.3,56.6c0.7,4,4.1,6.9,8.2,6.9c0.4,0,0.8-0.1,1.3-0.1l0.2,0C307,177.1,310,172.8,309.3,168.2z"/>
		</g>
		<g>
			<path class="st0" d="M377.9,165.1L377.9,165.1c-7-41.3-26.5-78.8-56.3-108.7C291.7,26.6,254.1,7.2,212.9,0.1
				c-0.5-0.1-1-0.1-1.4-0.1c-1.7,0-3.3,0.5-4.7,1.5c-1.8,1.3-3,3.2-3.4,5.4c-0.7,4.5,2.3,8.8,6.9,9.6c37.7,6.4,72.2,24.3,99.7,51.7
				c27.4,27.4,45.2,61.8,51.7,99.7c0.7,4,4.1,6.9,8.2,6.9c0.4,0,0.9-0.1,1.4-0.1l0.1,0c2.1-0.3,4-1.5,5.3-3.3
				C377.8,169.5,378.3,167.3,377.9,165.1z"/>
		</g>
	</g>
</g>
</svg>
